<?xml version="1.0" encoding="UTF-8" standalone="no"?>

<svg
   xmlns="http://www.w3.org/2000/svg"
   version="1.1"
   width="32"
   height="32"
   viewBox="0 0 32 32">
  <path
     style="font-size:medium;font-style:normal;font-variant:normal;font-weight:normal;font-stretch:normal;text-indent:0;text-align:start;text-decoration:none;line-height:normal;letter-spacing:normal;word-spacing:normal;text-transform:none;direction:ltr;block-progression:tb;writing-mode:lr-tb;text-anchor:start;baseline-shift:baseline;color:#000000;fill:#000000;fill-opacity:1;stroke:none;stroke-width:1.5;marker:none;visibility:visible;display:inline;overflow:visible;enable-background:accumulate;font-family:Sans"
     d="M 7.75,0.5 7,1.25 l 0,11 0.75,0.75 18,0 0.75,-0.75 0,-11 -0.75,-0.75 -18,0 z M 8.5,2 25,2 l 0,9.5 -16.5,0 0,-9.5 z" />
  <path
     d="m 9.7499999,3.2499828 14.0000001,0 0,1.7501 -14.0000001,0 z m 0,2.6251 14.0000001,0 0,1.75 -14.0000001,0 z m 0,2.6249002 14.0000001,0 0,1.75 -14.0000001,0 z"
     fill="#000000" />
  <path
     d="M 18.65625 14 L 18.65625 20.625 L 18.375 20.625 L 11.5 14.625 L 11.5 20.625 L 9.90625 20.625 C 7.7609795 20.625 6 22.385979 6 24.53125 L 6 27.15625 C 6 29.301521 7.7609795 31.0625 9.90625 31.0625 L 23.90625 31.0625 C 26.051521 31.0625 27.8125 29.301521 27.8125 27.15625 L 27.8125 24.53125 C 27.8125 22.385979 26.051521 20.625 23.90625 20.625 L 21.5 20.625 L 21.5 14 L 18.65625 14 z M 9.90625 22.40625 L 11.5 22.40625 L 11.5 28.375 L 18.34375 22.40625 L 18.65625 22.40625 L 18.65625 29 L 21.5 29 L 21.5 22.40625 L 23.90625 22.40625 C 25.084979 22.40625 26 23.352521 26 24.53125 L 26 27.15625 C 26 28.334979 25.084979 29.28125 23.90625 29.28125 L 9.90625 29.28125 C 8.7275205 29.28125 7.8125 28.334979 7.8125 27.15625 L 7.8125 24.53125 C 7.8125 23.352521 8.7275205 22.40625 9.90625 22.40625 z " />
</svg>
