<?xml version="1.0" encoding="UTF-8" standalone="no"?>

<svg
   xmlns="http://www.w3.org/2000/svg"
   version="1.1"
   width="32"
   height="32"
   viewBox="0 0 32 32">
  <path
     style="font-size:medium;font-style:normal;font-variant:normal;font-weight:normal;font-stretch:normal;text-indent:0;text-align:start;text-decoration:none;line-height:normal;letter-spacing:normal;word-spacing:normal;text-transform:none;direction:ltr;block-progression:tb;writing-mode:lr-tb;text-anchor:start;baseline-shift:baseline;color:#000000;fill:#000000;fill-opacity:1;stroke:none;stroke-width:1.5;marker:none;visibility:visible;display:inline;overflow:visible;enable-background:accumulate;font-family:Sans"
     d="M 7.75,0.5 7,1.25 l 0,11 0.75,0.75 18,0 0.75,-0.75 0,-11 -0.75,-0.75 -18,0 z M 8.5,2 25,2 l 0,9.5 -16.5,0 0,-9.5 z" />
  <path
     d="m 9.7499999,3.2499828 14.0000001,0 0,1.7501 -14.0000001,0 z m 0,2.6251 14.0000001,0 0,1.75 -14.0000001,0 z m 0,2.6249002 14.0000001,0 0,1.75 -14.0000001,0 z"
     fill="#000000" />
  <path
     d="m 20.686038,15.027595 v 14.513338 h -2.72581 v -6.651849 l -6.814523,6.047127 V 15.632318 l 6.814523,6.047224 v -6.651947 z"
     fill="#000000" />
</svg>
