<?xml version="1.0" encoding="UTF-8" standalone="no"?>

<svg
   xmlns="http://www.w3.org/2000/svg"
   version="1.1"
   width="32"
   height="32"
   viewBox="0 0 32 32">
  <path
     style="font-size:medium;font-style:normal;font-variant:normal;font-weight:normal;font-stretch:normal;text-indent:0;text-align:start;text-decoration:none;line-height:normal;letter-spacing:normal;word-spacing:normal;text-transform:none;direction:ltr;block-progression:tb;writing-mode:lr-tb;text-anchor:start;baseline-shift:baseline;color:#000000;fill:#000000;fill-opacity:1;stroke:none;stroke-width:1.5;marker:none;visibility:visible;display:inline;overflow:visible;enable-background:accumulate;font-family:Sans"
     d="M 7.75,0.5 7,1.25 l 0,11 0.75,0.75 18,0 0.75,-0.75 0,-11 -0.75,-0.75 -18,0 z M 8.5,2 25,2 l 0,9.5 -16.5,0 0,-9.5 z" />
  <path
     d="m 9.7499999,3.2499828 14.0000001,0 0,1.7501 -14.0000001,0 z m 0,2.6251 14.0000001,0 0,1.75 -14.0000001,0 z m 0,2.6249002 14.0000001,0 0,1.75 -14.0000001,0 z"
     fill="#000000" />
  <path
     d="M 21.5,14 V 29 H 18.642857 V 22.125101 L 11.5,28.375 V 14.625001 L 18.642857,20.875 V 14 z"
     fill="#000000" />
  <path
     style="font-size:medium;font-style:normal;font-variant:normal;font-weight:normal;font-stretch:normal;text-indent:0;text-align:start;text-decoration:none;line-height:normal;letter-spacing:normal;word-spacing:normal;text-transform:none;direction:ltr;block-progression:tb;writing-mode:lr-tb;text-anchor:start;baseline-shift:baseline;color:#000000;fill:#000000;fill-opacity:1;stroke:none;stroke-width:1.80088699;marker:none;visibility:visible;display:inline;overflow:visible;enable-background:accumulate;font-family:Sans"
     d="M 9.90625,20.625 C 7.7609795,20.625 6,22.385979 6,24.53125 l 0,2.625 c 0,2.145271 1.7609795,3.90625 3.90625,3.90625 l 14,0 c 2.145271,0 3.90625,-1.760979 3.90625,-3.90625 l 0,-2.625 c 0,-2.145271 -1.760979,-3.90625 -3.90625,-3.90625 l -14,0 z m 0,1.78125 14,0 c 1.178729,0 2.09375,0.946271 2.09375,2.125 l 0,2.625 c 0,1.178729 -0.915021,2.125 -2.09375,2.125 l -14,0 c -1.1787295,0 -2.09375,-0.946271 -2.09375,-2.125 l 0,-2.625 c 0,-1.178729 0.9150205,-2.125 2.09375,-2.125 z" />
</svg>
