<?xml version="1.0" encoding="UTF-8" standalone="no"?>

<svg
   xmlns="http://www.w3.org/2000/svg"
   version="1.0"
   width="150.56873"
   height="150.31233">
  <path
     style="font-size:medium;font-style:normal;font-variant:normal;font-weight:normal;font-stretch:normal;text-indent:0;text-align:start;text-decoration:none;line-height:normal;letter-spacing:normal;word-spacing:normal;text-transform:none;direction:ltr;block-progression:tb;writing-mode:lr-tb;text-anchor:start;baseline-shift:baseline;color:#000000;fill:#000000;fill-opacity:1;stroke:none;stroke-width:8.42870998;marker:none;visibility:visible;display:inline;overflow:visible;enable-background:accumulate;font-family:Sans"
     d="m 49.727422,13.244212 a 4.0173011,3.9835699 85.999999 0 0 -2.739181,1.475461 L 14.807015,54.97997 a 4.0173011,3.9835699 85.999999 0 0 -0.76906,3.397938 l 11.202784,50.543512 a 4.0173011,3.9835699 85.999999 0 0 2.144075,2.7165 L 73.533398,134.358 a 4.0173011,3.9835699 85.999999 0 0 3.4365,0.0284 L 123.32295,112.1849 a 4.0173011,3.9835699 85.999999 0 0 2.17841,-2.72016 l 11.63639,-50.378933 a 4.0173011,3.9835699 85.999999 0 0 -0.77136,-3.409655 L 104.53767,15.024918 a 4.0173011,3.9835699 85.999999 0 0 -3.09635,-1.515279 L 50.110451,13.217428 a 4.0173011,3.9835699 85.999999 0 0 -0.383029,0.02678 z m 2.278205,8.021942 47.509261,0.260858 L 128.94096,59.151387 118.16448,105.73787 75.278891,126.29356 32.596849,105.30174 22.249293,58.520321 52.005627,21.266154 z" />
  <path
     style="font-size:medium;font-style:normal;font-variant:normal;font-weight:normal;font-stretch:normal;text-indent:0;text-align:start;text-decoration:none;line-height:normal;letter-spacing:normal;word-spacing:normal;text-transform:none;direction:ltr;block-progression:tb;writing-mode:lr-tb;text-anchor:start;baseline-shift:baseline;color:#000000;fill:#000000;fill-opacity:1;stroke:none;stroke-width:17.37169838;marker:none;visibility:visible;display:inline;overflow:visible;enable-background:accumulate;font-family:Sans"
     d="m 84.520865,43.489492 a 3.5151388,3.4856241 85.999983 0 0 -0.199258,0.02661 l -29.066103,5.150895 a 3.5151388,3.4856241 85.999983 0 0 -2.846457,2.975175 l -4.086193,29.466811 a 3.5151388,3.4856241 85.999983 0 0 1.914912,3.656341 l 26.543683,13.06401 a 3.5151388,3.4856241 85.999983 0 0 4.034486,-0.725793 L 101.30451,75.705508 a 3.5151388,3.4856241 85.999983 0 0 0.5692,-4.083575 L 88.00538,45.324761 A 3.5151388,3.4856241 85.999983 0 0 84.520865,43.489492 z M 83.039178,50.882033 94.529689,72.65521 77.555587,90.384859 55.56817,79.562877 58.964564,55.15148 83.039178,50.882033 z" />
  <path
     style="font-size:medium;font-style:normal;font-variant:normal;font-weight:normal;font-stretch:normal;text-indent:0;text-align:start;text-decoration:none;line-height:normal;letter-spacing:normal;word-spacing:normal;text-transform:none;direction:ltr;block-progression:tb;writing-mode:lr-tb;text-anchor:start;baseline-shift:baseline;color:#000000;fill:#000000;fill-opacity:1;stroke:none;stroke-width:7.00000048;marker:none;visibility:visible;display:inline;overflow:visible;enable-background:accumulate;font-family:Sans"
     d="m 51.09375,3.3125 -6.9375,1.03125 c 5.321301,36.041413 8.3125,49.5625 8.3125,49.5625 L 59.3125,52.375 c 0,0 -2.915859,-13.145773 -8.21875,-49.0625 z" />
  <path
     style="font-size:medium;font-style:normal;font-variant:normal;font-weight:normal;font-stretch:normal;text-indent:0;text-align:start;text-decoration:none;line-height:normal;letter-spacing:normal;word-spacing:normal;text-transform:none;direction:ltr;block-progression:tb;writing-mode:lr-tb;text-anchor:start;baseline-shift:baseline;color:#000000;fill:#000000;fill-opacity:1;stroke:none;stroke-width:7.00000048;marker:none;visibility:visible;display:inline;overflow:visible;enable-background:accumulate;font-family:Sans"
     d="m 108.28125,1.5 c 0,0 -9.971937,14.462597 -27.15625,44.40625 l 6.09375,3.5 C 104.30619,19.631403 114.0625,5.5 114.0625,5.5 l -5.78125,-4 z" />
  <path
     style="font-size:medium;font-style:normal;font-variant:normal;font-weight:normal;font-stretch:normal;text-indent:0;text-align:start;text-decoration:none;line-height:normal;letter-spacing:normal;word-spacing:normal;text-transform:none;direction:ltr;block-progression:tb;writing-mode:lr-tb;text-anchor:start;baseline-shift:baseline;color:#000000;fill:#000000;fill-opacity:1;stroke:none;stroke-width:7.00000048;marker:none;visibility:visible;display:inline;overflow:visible;enable-background:accumulate;font-family:Sans"
     d="m 145.71875,48.75 c 0,0 -14.32237,5.919156 -47.9375,20.15625 l -3.5625,1.5 1.875,3.40625 c 16.6393,30.25774 35.8125,45.625 35.8125,45.625 l 4.375,-5.46875 c 0,0 -16.56472,-13.36525 -32.0625,-40.15625 28.30199,-11.968577 44.1875,-18.59375 44.1875,-18.59375 L 145.71875,48.75 z" />
  <path
     style="font-size:medium;font-style:normal;font-variant:normal;font-weight:normal;font-stretch:normal;text-indent:0;text-align:start;text-decoration:none;line-height:normal;letter-spacing:normal;word-spacing:normal;text-transform:none;direction:ltr;block-progression:tb;writing-mode:lr-tb;text-anchor:start;baseline-shift:baseline;color:#000000;fill:#000000;fill-opacity:1;stroke:none;stroke-width:7.00000048;marker:none;visibility:visible;display:inline;overflow:visible;enable-background:accumulate;font-family:Sans"
     d="m 74.78125,92.90625 c -2.66007,36.8385 -4.625,53.5 -4.625,53.5 l 6.9375,0.8125 c 0,0 1.989274,-16.87837 4.65625,-53.8125 l -6.96875,-0.5 z" />
  <path
     style="font-size:medium;font-style:normal;font-variant:normal;font-weight:normal;font-stretch:normal;text-indent:0;text-align:start;text-decoration:none;line-height:normal;letter-spacing:normal;word-spacing:normal;text-transform:none;direction:ltr;block-progression:tb;writing-mode:lr-tb;text-anchor:start;baseline-shift:baseline;color:#000000;fill:#000000;fill-opacity:1;stroke:none;stroke-width:7.00000048;marker:none;visibility:visible;display:inline;overflow:visible;enable-background:accumulate;font-family:Sans"
     d="M 49.96875,79.03125 C 26.998547,105.82645 10.4375,114.75 10.4375,114.75 l 3.3125,6.15625 c 0,0 17.965903,-9.82306 41.53125,-37.3125 l -5.3125,-4.5625 z" />
  <path
     style="font-size:medium;font-style:normal;font-variant:normal;font-weight:normal;font-stretch:normal;text-indent:0;text-align:start;text-decoration:none;line-height:normal;letter-spacing:normal;word-spacing:normal;text-transform:none;direction:ltr;block-progression:tb;writing-mode:lr-tb;text-anchor:start;baseline-shift:baseline;color:#000000;fill:#000000;fill-opacity:1;stroke:none;stroke-width:7.00000048;marker:none;visibility:visible;display:inline;overflow:visible;enable-background:accumulate;font-family:Sans"
     d="M 55.4375,49.65625 C 17.608627,54.731377 4.09375,52.3125 4.09375,52.3125 l -1.1875,6.90625 c 0,0 15.085705,2.520283 53.4375,-2.625 l -0.90625,-6.9375 z" />
</svg>
