<?xml version="1.0" encoding="UTF-8" standalone="no"?>

<svg
   xmlns="http://www.w3.org/2000/svg"
   version="1.1"
   width="32"
   height="32"
   viewBox="0 0 32 32">
  <path
     d="m 11,4.9999991 18,0 L 29,8 11,8 z M 17.75,9.5 29,9.5 l 0,3 -11.25,0 z m 0,4.5 11.25,0 0,3 -11.25,0 z m 0,4.5 11.25,0 0,3 -11.25,0 z M 11,23 l 18,0 0,3 -18,0 z"
     style="fill:#000000" />
  <path
     style="fill:#000000;fill-opacity:1;fill-rule:evenodd;stroke:none"
     d="M 3 1 L 3 2 L 3 29 L 3 30 L 4 30 L 10.84375 30 L 10.84375 31 L 14.3125 29 L 10.84375 27 L 10.84375 28 L 5 28 L 5 3 L 12 3 L 12 1 L 4 1 L 3 1 z " />
</svg>
