<?xml version="1.0" encoding="UTF-8" standalone="no"?>

<svg
   xmlns="http://www.w3.org/2000/svg"
   version="1.1"
   width="32"
   height="32"
   viewBox="0 0 32 32">
  <path
     d="m 11,7.9999991 18,0 L 29,11 11,11 z M 17.75,12.5 l 11.25,0 0,3 -11.25,0 z m 0,4.5 11.25,0 0,3 -11.25,0 z m 0,4.5 11.25,0 0,3 -11.25,0 z M 11,26 l 18,0 0,3 -18,0 z"
     style="fill:#000000" />
  <path
     style="fill:#000000;fill-opacity:1;fill-rule:evenodd;stroke:none"
     d="M 3 4 L 3 5 L 3 17 L 3 18 L 4 18 L 10.84375 18 L 10.84375 19 L 14.3125 17 L 10.84375 15 L 10.84375 16 L 5 16 L 5 6 L 12 6 L 12 4 L 4 4 L 3 4 z " />
</svg>
